<?xml version="1.0" encoding="utf-8"?>
<!-- Generator: Adobe Illustrator 15.1.0, SVG Export Plug-In . SVG Version: 6.00 Build 0)  -->
<!DOCTYPE svg PUBLIC "-//W3C//DTD SVG 1.1//EN" "http://www.w3.org/Graphics/SVG/1.1/DTD/svg11.dtd">
<svg version="1.1" id="Layer_1" xmlns="http://www.w3.org/2000/svg" xmlns:xlink="http://www.w3.org/1999/xlink" x="0px" y="0px"
	 width="30px" height="30px" viewBox="5 5 30 30" enable-background="new 5 5 30 30" xml:space="preserve">
<path fill="#FFFFFF" d="M30,13.807c-0.737,0.327-1.525,0.548-2.356,0.643c0.844-0.511,1.499-1.311,1.802-2.269
	c-0.794,0.473-1.67,0.813-2.602,0.995c-0.75-0.794-1.815-1.298-2.993-1.298c-2.646,0-4.595,2.47-3.994,5.034
	c-3.409-0.17-6.435-1.802-8.457-4.284c-1.071,1.841-0.555,4.253,1.266,5.476c-0.674-0.019-1.305-0.208-1.859-0.511
	c-0.044,1.904,1.318,3.68,3.289,4.072c-0.579,0.156-1.209,0.195-1.853,0.068c0.523,1.633,2.035,2.818,3.832,2.848
	c-1.727,1.348-3.895,1.953-6.074,1.701c1.815,1.166,3.97,1.84,6.289,1.84c7.61,0,11.915-6.433,11.657-12.198
	C28.759,15.35,29.451,14.632,30,13.807z"/>
</svg>
